<?xml version="1.0" encoding="UTF-8" standalone="no"?>
<!-- Created with Inkscape (http://www.inkscape.org/) -->

<svg
   xmlns:dc="http://purl.org/dc/elements/1.1/"
   xmlns:cc="http://creativecommons.org/ns#"
   xmlns:rdf="http://www.w3.org/1999/02/22-rdf-syntax-ns#"
   xmlns:svg="http://www.w3.org/2000/svg"
   xmlns="http://www.w3.org/2000/svg"
   xmlns:sodipodi="http://sodipodi.sourceforge.net/DTD/sodipodi-0.dtd"
   xmlns:inkscape="http://www.inkscape.org/namespaces/inkscape"
   width="256"
   height="256"
   viewBox="0 0 67.733332 67.733335"
   version="1.1"
   id="svg8"
   inkscape:version="0.92.5 (2060ec1f9f, 2020-04-08)"
   sodipodi:docname="hydrogen-grass.hm.svg">
  <defs
     id="defs2" />
  <sodipodi:namedview
     id="base"
     pagecolor="#ffffff"
     bordercolor="#666666"
     borderopacity="1.0"
     inkscape:pageopacity="0.0"
     inkscape:pageshadow="2"
     inkscape:zoom="1.979899"
     inkscape:cx="21.823481"
     inkscape:cy="90.003658"
     inkscape:document-units="mm"
     inkscape:current-layer="layer1"
     showgrid="false"
     units="px"
     inkscape:showpageshadow="false"
     inkscape:pagecheckerboard="true"
     inkscape:window-width="1864"
     inkscape:window-height="1016"
     inkscape:window-x="56"
     inkscape:window-y="27"
     inkscape:window-maximized="1">
    <inkscape:grid
       type="xygrid"
       id="grid815" />
  </sodipodi:namedview>
  <metadata
     id="metadata5">
    <rdf:RDF>
      <cc:Work
         rdf:about="">
        <dc:format>image/svg+xml</dc:format>
        <dc:type
           rdf:resource="http://purl.org/dc/dcmitype/StillImage" />
        <dc:title />
      </cc:Work>
    </rdf:RDF>
  </metadata>
  <g
     inkscape:label="Layer 1"
     inkscape:groupmode="layer"
     id="layer1"
     transform="translate(0,-229.26665)">
    <path
       style="fill:#808080;fill-opacity:1;stroke:none;stroke-width:0.24648531px;stroke-linecap:butt;stroke-linejoin:miter;stroke-opacity:1"
       d="m 0,297.00372 c 0.64393463,-6.2565 1.8145294,-12.42159 4.2333333,-18.37001 0.1497549,6.46016 -0.3641322,13.09755 4.2333333,18.37001 C 9.0643109,277.7716 11.12438,279.90436 12.7,274.9597 c -0.578443,10.8836 1.073227,17.80411 4.233333,22.04402 3.803948,-5.21479 2.958006,-12.19512 4.233333,-18.37001 4.468785,15.14585 4.044244,15.85258 4.233334,18.37001 3.207197,-6.37377 3.828136,-14.15039 4.233333,-22.04402 1.144354,9.37373 1.765814,22.71827 4.233333,22.04402 5.001726,-2.17823 3.19704,-7.19186 4.233334,-11.02201 1.279511,3.29057 0.742595,1.28885 4.233333,11.02201 0.37134,-3.92108 -0.200069,-6.95579 4.233333,-14.69601 0.89852,5.0639 -2.213871,11.42075 4.233333,14.69601 4.596153,-2.51139 3.119594,-9.57446 4.233334,-14.69601 1.436683,4.74332 3.431242,6.09746 4.233333,14.69601 0.490612,-2.31618 1.612891,-4.72374 4.233333,-7.348 0.434731,3.38591 0.530651,7.09681 4.233333,7.348 z"
       id="path816"
       inkscape:connector-curvature="0"
       sodipodi:nodetypes="cccccccccccccccccc" />
    <path
       style="fill:#808080;fill-opacity:1;stroke:none;stroke-width:0.24781792px;stroke-linecap:butt;stroke-linejoin:miter;stroke-opacity:1"
       d="m 2.9443793,297.37058 c 0.5599664,-7.27268 1.5779169,-14.43911 3.681311,-21.35368 0.1302262,7.50942 -0.3166504,15.22486 3.6813097,21.35368 0.519712,-22.35581 2.31115,-19.87664 3.68131,-25.62443 -0.503014,12.65133 0.93328,20.69588 3.68131,25.62443 3.307918,-6.06177 2.572285,-14.17585 3.68131,-21.35368 3.88606,17.60584 3.51688,18.42738 3.681313,21.35368 2.78898,-7.409 3.32895,-16.4487 3.681308,-25.62443 0.995132,10.89623 1.535556,26.4082 3.681311,25.62443 4.349505,-2.53201 2.780149,-8.35996 3.68131,-12.81222 1.112665,3.82503 0.645762,1.49819 3.681311,12.81222 0.322918,-4.55795 -0.173979,-8.08555 3.68131,-17.08294 0.781354,5.88638 -1.925182,13.2757 3.681309,17.08294 3.996821,-2.9193 2.712803,-11.12954 3.681312,-17.08294 1.249343,5.51373 2.983813,7.08782 3.68131,17.08294 0.426636,-2.69238 1.402572,-5.49096 3.681308,-8.54147 0.378042,3.93586 0.461454,8.24948 3.681316,8.54147 z"
       id="path816-3"
       inkscape:connector-curvature="0"
       sodipodi:nodetypes="cccccccccccccccccc" />
  </g>
</svg>
